<?xml version="1.0" encoding="UTF-8"?>
<!DOCTYPE svg PUBLIC "-//W3C//DTD SVG 1.1//EN" "http://www.w3.org/Graphics/SVG/1.1/DTD/svg11.dtd">
<!-- Creator: CorelDRAW 2020 (64 Bit) -->
<svg xmlns="http://www.w3.org/2000/svg" xml:space="preserve" width="34.9674mm" height="14.3715mm" version="1.1" style="shape-rendering:geometricPrecision; text-rendering:geometricPrecision; image-rendering:optimizeQuality; fill-rule:evenodd; clip-rule:evenodd"
viewBox="0 0 3122.05 1283.15"
 xmlns:xlink="http://www.w3.org/1999/xlink"
 xmlns:xodm="http://www.corel.com/coreldraw/odm/2003">
 <defs>
  <style type="text/css">
   <![CDATA[
    .str0 {stroke:#0F5132;stroke-width:60.47;stroke-miterlimit:22.9256}
    .fil4 {fill:none}
    .fil3 {fill:#ED3237}
    .fil1 {fill:#0F5132}
    .fil0 {fill:#0F5132}
    .fil2 {fill:#EA222D}
   ]]>
  </style>
 </defs>
 <g id="Camada_x0020_1">
  <metadata id="CorelCorpID_0Corel-Layer"/>
  <g id="_2187094826416">
   <path class="fil0" d="M1047.75 226.06c58.61,-0.6 120.7,-7.26 165.99,19.88 36.91,22.12 69.99,62.91 69.75,121.46 -0.25,58.37 -36.78,98.74 -71.91,119.16 -44.73,25.99 -109.38,21.04 -165.53,18.78l1.71 -279.28zm-119.16 397.79c105.57,0.14 250.32,14.69 335.17,-30.04 185.79,-97.96 183.85,-360.28 -3.11,-458.14 -78.62,-41.15 -232.75,-28.78 -332.85,-27.97l0.79 516.15z"/>
   <path class="fil1" d="M1709.79 223.3c86.07,-15.6 154.78,48.68 167.5,118.1 15.39,84.02 -47.5,153.66 -116.71,166.75 -87.28,16.5 -160.72,-46.2 -172.96,-116.87 -15.32,-88.51 49.81,-154.86 122.18,-167.97zm-241.6 165.28c9.47,140.08 138.11,252.84 290.51,239.43 136.3,-11.99 251.26,-133.81 238.51,-284.48 -11.76,-138.94 -134.03,-252.51 -287.46,-240.18 -139.72,11.23 -251.93,131.6 -241.55,285.22z"/>
   <path class="fil2" d="M2762.95 265.75c-53.19,-0.32 -158.17,-6.53 -158.77,99.36 -0.67,117.69 133.05,96.23 158.79,102.51 -0.79,40.96 -4.71,78.64 15.9,111.35 36.8,58.43 123.31,64.01 167.18,0.87 22.72,-32.71 16.21,-70.99 16.87,-114.4 41.07,-0.56 81.71,4.97 114.01,-16.03 58.15,-37.82 62.44,-125.58 -0.84,-167.69 -31.47,-20.95 -72.76,-15.95 -113.41,-16.12 0.1,-39.4 4.71,-81.67 -14.98,-112.64 -38.65,-60.76 -130.15,-62.64 -168.3,-1.06 -22.07,35.63 -15.96,69.34 -16.44,113.86z"/>
   <path class="fil0" d="M2539.05 528.89c-10.71,-23.78 -49.29,-61.31 -96.69,-56.06 -38.65,4.28 -53.88,36.62 -109.86,37.93 -81.74,1.91 -150.27,-63.37 -151.21,-143.24 -0.95,-80.84 69.13,-148.66 151.13,-146.13 85.86,2.64 108.93,95.22 206.4,-12.92 -11.26,-26.51 -80.83,-73.04 -123.03,-88.86 -59.2,-22.19 -115.45,-23.04 -176.52,-1.32 -92.23,32.8 -175.42,119.23 -176.51,245.07 -1.84,212.91 260.19,381.04 476.29,165.54z"/>
   <path class="fil3" d="M104.94 683.66l0.76 -176.3c-1.38,-75.2 -0.2,-152.72 0.13,-228.19 0.37,-86.08 1.21,-134.69 66.37,-165.03 67.36,-31.37 129.86,10.66 150.67,57.06 18.98,42.37 8.86,166.49 10.67,222.02l100.66 0.14c3.09,-54.9 -6.12,-149.69 2.52,-196.06 22.67,-121.56 196.17,-124.4 222.35,-4.19 9.48,43.54 1.45,148.32 3.37,200.06l100.87 0.48c4.01,-146.77 16.21,-272.13 -77.03,-345.43 -64.44,-50.66 -169.66,-63.95 -244.26,-23.11 -29.1,15.94 -36.44,33.64 -58.28,49.75 -35.7,-26.21 -80.18,-99.55 -219.53,-66.43 -204.26,48.55 -160.28,282.85 -160.11,452.12 0.12,103.55 -2.32,206.23 0.42,307.56l100.61 0.96 -0.2 -85.41z"/>
   <path class="fil0" d="M773.87 633.68c2.09,21.48 -1.08,24.77 -1.79,42.96 -0.65,16.38 2.96,22.79 2.16,38.1 -1.05,20.22 -2.96,51.12 -9.12,69.11 -25.18,62.92 -57.07,106.39 -118.12,132.57 -91.9,39.41 -140.73,9.35 -201.27,-11.79 -0.99,248.65 299.03,361.87 465.68,204.3 50.89,-48.12 77.12,-97.89 89.17,-180.67 19.97,-6.96 78.65,-4.39 101.83,-2.11 -8.4,211.52 -208.03,390.64 -443.82,351.62 -117.07,-19.37 -197.02,-85.96 -247.7,-157.61 -70.65,-99.86 -67.91,-194.32 -66.71,-336.72l-0.9 -34.24c6.56,-55.8 -8.77,-144.7 2.75,-197.35l98.8 0.21 0.92 83.06c1.87,55.63 -13.71,100.26 20.25,148.99 53.89,64.41 129.66,63.57 179.53,8.5 53.17,-58.71 11.71,-160.16 29.54,-240.79l98.78 0.39 0.05 81.47z"/>
   <path class="fil0" d="M400.62 447.9c34.95,0 63.28,28.33 63.28,63.28 0,34.95 -28.33,63.28 -63.28,63.28 -34.95,0 -63.28,-28.33 -63.28,-63.28 0,-34.95 28.33,-63.28 63.28,-63.28z"/>
   <path class="fil0" d="M721.22 452.12c34.95,0 63.28,28.33 63.28,63.28 0,34.95 -28.32,63.28 -63.28,63.28 -34.95,0 -63.28,-28.33 -63.28,-63.28 0,-34.95 28.33,-63.28 63.28,-63.28z"/>
   <path class="fil4 str0" d="M1050.27 928.8c46.59,0 84.36,-37.78 84.36,-84.37 0,-46.6 -37.78,-84.37 -84.36,-84.37 -46.6,0 -84.37,37.78 -84.37,84.37 0,46.6 37.78,84.37 84.37,84.37z"/>
   <path class="fil0" d="M1050.27 865.52c11.65,0 21.09,-9.45 21.09,-21.1 0,-11.64 -9.44,-21.09 -21.09,-21.09 -11.65,0 -21.09,9.45 -21.09,21.09 0,11.65 9.44,21.1 21.09,21.1z"/>
  </g>
 </g>
</svg>